<?xml version='1.0' encoding='iso-8859-1'?>
<!-- Uploaded to: SVG Repo, www.svgrepo.com, Generator: SVG Repo Mixer Tools -->
<svg fill="#000000" height="800px" width="800px" version="1.1" xmlns="http://www.w3.org/2000/svg" viewBox="0 0 441.592 441.592" xmlns:xlink="http://www.w3.org/1999/xlink" enable-background="new 0 0 441.592 441.592">
  <path d="m329.788,38.286c-4.734-3.349-11.287-2.225-14.636,2.509l-17.657,24.964-34.257-24.23 17.657-24.964c3.349-4.734 2.226-11.287-2.509-14.636s-11.288-2.225-14.636,2.509l-17.657,24.964-8.649-6.118c-2.273-1.608-5.092-2.248-7.837-1.776-2.745,0.47-5.19,2.012-6.798,4.285l-42.009,59.394c-6.597,9.325-9.161,20.695-7.221,32.014 1.94,11.319 8.145,21.186 17.471,27.782l6.081,4.301-87.685,117.821c-2.37,3.185-2.742,7.434-0.959,10.981s5.413,5.787 9.383,5.787h170.83l-81.477,109.477 3.955-33.713c0.675-5.76-3.446-10.977-9.206-11.652-5.756-0.682-10.976,3.446-11.652,9.205l-8.526,72.679c-0.442,3.769 1.184,7.483 4.252,9.715 1.826,1.328 3.994,2.009 6.177,2.009 1.486,0 2.979-0.315 4.375-0.955l67.769-31.071c5.271-2.417 7.585-8.649 5.168-13.921-2.417-5.272-8.649-7.584-13.92-5.169l-30.476,13.973 92.887-124.809c2.37-3.185 2.742-7.434 0.959-10.981s-5.413-5.787-9.383-5.787l-170.833-.001 75.508-101.458 9.712,6.869c9.325,6.597 20.694,9.161 32.016,7.221 11.319-1.94 21.186-8.146 27.781-17.471l42.009-59.394c3.349-4.734 2.226-11.287-2.509-14.636l-8.648-6.117 17.657-24.964c3.35-4.735 2.227-11.288-2.507-14.636zm-63.145,107.619c-3.357,4.746-8.395,7.907-14.185,8.899-5.792,0.996-11.594-0.31-16.34-3.667l-32.942-23.301c-4.747-3.357-7.907-8.395-8.899-14.185-0.993-5.791 0.31-11.594 3.667-16.34l35.946-50.821 68.699,48.593-35.946,50.822z"/>
</svg>